<svg width="564" height="563" viewBox="0 0 564 563" fill="none" xmlns="http://www.w3.org/2000/svg">
<path fill-rule="evenodd" clip-rule="evenodd" d="M485.293 204.072C479.435 198.214 469.938 198.214 464.08 204.072L396.905 271.247C391.047 277.105 391.047 286.602 396.905 292.46L464.08 359.635C469.938 365.493 479.435 365.493 485.293 359.635L552.468 292.46C558.326 286.602 558.326 277.105 552.468 271.247L485.293 204.072ZM175.58 107.905C181.438 102.047 190.936 102.047 196.794 107.905L456.302 367.413C462.16 373.271 462.16 382.769 456.302 388.627L389.127 455.802C383.269 461.66 373.771 461.66 367.913 455.802L108.405 196.294C102.547 190.436 102.547 180.938 108.405 175.08L175.58 107.905ZM78.7068 203.365C84.5647 197.507 94.0622 197.507 99.92 203.365L359.428 462.873C365.286 468.731 365.286 478.228 359.428 484.086L292.253 551.261C286.395 557.119 276.898 557.119 271.04 551.261L11.5317 291.753C5.67381 285.895 5.6738 276.398 11.5317 270.54L78.7068 203.365ZM367.913 107.905C373.771 102.047 383.269 102.047 389.127 107.905L456.302 175.08C462.16 180.938 462.16 190.436 456.302 196.294L389.127 263.469C383.269 269.327 373.771 269.327 367.913 263.469L300.738 196.294C294.88 190.436 294.88 180.938 300.738 175.08L367.913 107.905ZM292.96 11.7388C287.102 5.88089 277.605 5.88089 271.747 11.7388L204.572 78.9139C198.714 84.7718 198.714 94.2692 204.572 100.127L271.747 167.302C277.605 173.16 287.102 173.16 292.96 167.302L360.135 100.127C365.993 94.2692 365.993 84.7718 360.135 78.9139L292.96 11.7388Z" fill="#77E2FD"/>
<g filter="url(#filter0_d_2_14)">
<path d="M68.4 376.7C68.4 381.9 66.7 386.3 63.3 389.9C59.9 393.3 55.6 395 50.4 395C45.2 395 40.9 393.3 37.5 389.9C34.1 386.3 32.4 381.9 32.4 376.7V252.8C32.4 247.6 34.1 243.3 37.5 239.9C40.9 236.3 45.2 234.5 50.4 234.5C55.6 234.5 59.9 236.3 63.3 239.9C66.7 243.3 68.4 247.6 68.4 252.8V376.7ZM50.1 215C43.3 215 38.5 213.9 35.7 211.7C32.9 209.5 31.5 205.6 31.5 200V194.3C31.5 188.5 33 184.6 36 182.6C39.2 180.4 44 179.3 50.4 179.3C57.4 179.3 62.3 180.4 65.1 182.6C67.9 184.8 69.3 188.7 69.3 194.3V200C69.3 205.8 67.8 209.8 64.8 212C61.8 214 56.9 215 50.1 215ZM183.698 231.5C198.498 231.5 209.698 234.6 217.298 240.8C225.098 247 230.398 255.3 233.198 265.7C236.198 275.9 237.698 287.3 237.698 299.9V376.7C237.698 381.9 235.998 386.3 232.598 389.9C229.198 393.3 224.898 395 219.698 395C214.498 395 210.198 393.3 206.798 389.9C203.398 386.3 201.698 381.9 201.698 376.7V299.9C201.698 293.3 200.798 287.4 198.998 282.2C197.398 276.8 194.398 272.5 189.998 269.3C185.598 266.1 179.298 264.5 171.098 264.5C163.098 264.5 156.298 266.1 150.698 269.3C145.298 272.5 141.098 276.8 138.098 282.2C135.298 287.4 133.898 293.3 133.898 299.9V376.7C133.898 381.9 132.198 386.3 128.798 389.9C125.398 393.3 121.098 395 115.898 395C110.698 395 106.398 393.3 102.998 389.9C99.5984 386.3 97.8984 381.9 97.8984 376.7V252.8C97.8984 247.6 99.5984 243.3 102.998 239.9C106.398 236.3 110.698 234.5 115.898 234.5C121.098 234.5 125.398 236.3 128.798 239.9C132.198 243.3 133.898 247.6 133.898 252.8V265.7L129.398 264.8C131.198 261.4 133.798 257.8 137.198 254C140.598 250 144.598 246.3 149.198 242.9C153.798 239.5 158.998 236.8 164.798 234.8C170.598 232.6 176.898 231.5 183.698 231.5ZM282.909 320.9C277.709 320.9 273.309 319.2 269.709 315.8C266.309 312.4 264.609 308.1 264.609 302.9C264.609 297.7 266.309 293.5 269.709 290.3C273.309 286.9 277.709 285.2 282.909 285.2H335.109C340.309 285.2 344.609 287 348.009 290.6C351.609 294 353.409 298.3 353.409 303.5C353.409 308.5 351.609 312.7 348.009 316.1C344.609 319.3 340.309 320.9 335.109 320.9H282.909ZM414.455 376.7C414.455 381.9 412.755 386.3 409.355 389.9C405.955 393.3 401.655 395 396.455 395C391.255 395 386.955 393.3 383.555 389.9C380.155 386.3 378.455 381.9 378.455 376.7V252.8C378.455 247.6 380.155 243.3 383.555 239.9C386.955 236.3 391.255 234.5 396.455 234.5C401.655 234.5 405.955 236.3 409.355 239.9C412.755 243.3 414.455 247.6 414.455 252.8V376.7ZM396.155 215C389.355 215 384.555 213.9 381.755 211.7C378.955 209.5 377.555 205.6 377.555 200V194.3C377.555 188.5 379.055 184.6 382.055 182.6C385.255 180.4 390.055 179.3 396.455 179.3C403.455 179.3 408.355 180.4 411.155 182.6C413.955 184.8 415.355 188.7 415.355 194.3V200C415.355 205.8 413.855 209.8 410.855 212C407.855 214 402.955 215 396.155 215ZM445.753 237.5H516.853C521.653 237.5 525.653 239.1 528.853 242.3C532.053 245.5 533.653 249.5 533.653 254.3C533.653 258.9 532.053 262.8 528.853 266C525.653 269 521.653 270.5 516.853 270.5H445.753C440.953 270.5 436.953 268.9 433.753 265.7C430.553 262.5 428.953 258.5 428.953 253.7C428.953 249.1 430.553 245.3 433.753 242.3C436.953 239.1 440.953 237.5 445.753 237.5ZM477.853 200C483.053 200 487.253 201.8 490.453 205.4C493.853 208.8 495.553 213.1 495.553 218.3V351.8C495.553 354.6 496.053 356.9 497.053 358.7C498.253 360.5 499.753 361.8 501.553 362.6C503.553 363.4 505.653 363.8 507.853 363.8C510.253 363.8 512.453 363.4 514.453 362.6C516.453 361.6 518.753 361.1 521.353 361.1C524.153 361.1 526.653 362.4 528.853 365C531.253 367.6 532.453 371.2 532.453 375.8C532.453 381.4 529.353 386 523.153 389.6C517.153 393.2 510.653 395 503.653 395C499.453 395 494.753 394.7 489.553 394.1C484.553 393.3 479.753 391.6 475.153 389C470.753 386.2 467.053 382 464.053 376.4C461.053 370.8 459.553 363.1 459.553 353.3V218.3C459.553 213.1 461.253 208.8 464.653 205.4C468.253 201.8 472.653 200 477.853 200Z" fill="white"/>
</g>
<path d="M246.591 421.909V451H243.182L227.33 428.159H227.045V451H223.523V421.909H226.932L242.841 444.807H243.125V421.909H246.591ZM256.163 421.909V451H252.64V421.909H256.163ZM278.135 429.182C277.964 427.742 277.273 426.625 276.061 425.83C274.849 425.034 273.362 424.636 271.601 424.636C270.313 424.636 269.186 424.845 268.22 425.261C267.264 425.678 266.516 426.251 265.976 426.98C265.446 427.709 265.18 428.538 265.18 429.466C265.18 430.242 265.365 430.91 265.734 431.469C266.113 432.018 266.596 432.477 267.183 432.847C267.77 433.206 268.386 433.505 269.03 433.741C269.674 433.969 270.266 434.153 270.805 434.295L273.76 435.091C274.518 435.29 275.36 435.564 276.288 435.915C277.226 436.265 278.121 436.743 278.973 437.349C279.835 437.946 280.545 438.713 281.104 439.651C281.662 440.588 281.942 441.739 281.942 443.102C281.942 444.674 281.53 446.095 280.706 447.364C279.892 448.633 278.698 449.641 277.126 450.389C275.564 451.137 273.665 451.511 271.43 451.511C269.347 451.511 267.543 451.175 266.018 450.503C264.503 449.83 263.31 448.893 262.439 447.69C261.577 446.488 261.089 445.091 260.976 443.5H264.612C264.707 444.598 265.076 445.508 265.72 446.227C266.374 446.937 267.197 447.468 268.192 447.818C269.196 448.159 270.275 448.33 271.43 448.33C272.775 448.33 273.982 448.112 275.053 447.676C276.123 447.231 276.97 446.616 277.595 445.83C278.22 445.034 278.533 444.106 278.533 443.045C278.533 442.08 278.263 441.294 277.723 440.688C277.183 440.081 276.473 439.589 275.592 439.21C274.712 438.831 273.76 438.5 272.737 438.216L269.158 437.193C266.885 436.54 265.086 435.607 263.76 434.395C262.434 433.183 261.771 431.597 261.771 429.636C261.771 428.008 262.212 426.587 263.092 425.375C263.982 424.153 265.176 423.206 266.672 422.534C268.178 421.852 269.858 421.511 271.714 421.511C273.589 421.511 275.256 421.848 276.714 422.52C278.173 423.183 279.328 424.092 280.18 425.247C281.042 426.402 281.497 427.714 281.544 429.182H278.135ZM302.643 429.182C302.472 427.742 301.781 426.625 300.569 425.83C299.357 425.034 297.87 424.636 296.109 424.636C294.821 424.636 293.694 424.845 292.728 425.261C291.772 425.678 291.023 426.251 290.484 426.98C289.953 427.709 289.688 428.538 289.688 429.466C289.688 430.242 289.873 430.91 290.242 431.469C290.621 432.018 291.104 432.477 291.691 432.847C292.278 433.206 292.894 433.505 293.538 433.741C294.182 433.969 294.773 434.153 295.313 434.295L298.268 435.091C299.025 435.29 299.868 435.564 300.796 435.915C301.734 436.265 302.629 436.743 303.481 437.349C304.343 437.946 305.053 438.713 305.612 439.651C306.17 440.588 306.45 441.739 306.45 443.102C306.45 444.674 306.038 446.095 305.214 447.364C304.399 448.633 303.206 449.641 301.634 450.389C300.072 451.137 298.173 451.511 295.938 451.511C293.855 451.511 292.051 451.175 290.526 450.503C289.011 449.83 287.818 448.893 286.947 447.69C286.085 446.488 285.597 445.091 285.484 443.5H289.12C289.215 444.598 289.584 445.508 290.228 446.227C290.881 446.937 291.705 447.468 292.7 447.818C293.703 448.159 294.783 448.33 295.938 448.33C297.283 448.33 298.49 448.112 299.56 447.676C300.63 447.231 301.478 446.616 302.103 445.83C302.728 445.034 303.04 444.106 303.04 443.045C303.04 442.08 302.771 441.294 302.231 440.688C301.691 440.081 300.981 439.589 300.1 439.21C299.219 438.831 298.268 438.5 297.245 438.216L293.665 437.193C291.393 436.54 289.594 435.607 288.268 434.395C286.942 433.183 286.279 431.597 286.279 429.636C286.279 428.008 286.719 426.587 287.6 425.375C288.49 424.153 289.683 423.206 291.18 422.534C292.685 421.852 294.366 421.511 296.222 421.511C298.097 421.511 299.764 421.848 301.222 422.52C302.681 423.183 303.836 424.092 304.688 425.247C305.55 426.402 306.004 427.714 306.052 429.182H302.643ZM314.764 421.909V451H311.241V421.909H314.764ZM322.532 421.909L330.032 434.011H330.259L337.759 421.909H341.907L332.759 436.455L341.907 451H337.759L330.259 439.125H330.032L322.532 451H318.384L327.759 436.455L318.384 421.909H322.532Z" fill="white"/>
<defs>
<filter id="filter0_d_2_14" x="27.5" y="179.3" width="510.153" height="223.7" filterUnits="userSpaceOnUse" color-interpolation-filters="sRGB">
<feFlood flood-opacity="0" result="BackgroundImageFix"/>
<feColorMatrix in="SourceAlpha" type="matrix" values="0 0 0 0 0 0 0 0 0 0 0 0 0 0 0 0 0 0 127 0" result="hardAlpha"/>
<feOffset dy="4"/>
<feGaussianBlur stdDeviation="2"/>
<feComposite in2="hardAlpha" operator="out"/>
<feColorMatrix type="matrix" values="0 0 0 0 0 0 0 0 0 0 0 0 0 0 0 0 0 0 0.25 0"/>
<feBlend mode="normal" in2="BackgroundImageFix" result="effect1_dropShadow_2_14"/>
<feBlend mode="normal" in="SourceGraphic" in2="effect1_dropShadow_2_14" result="shape"/>
</filter>
</defs>
</svg>
